<svg xmlns="http://www.w3.org/2000/svg" xmlns:xlink="http://www.w3.org/1999/xlink" width="1920" height="1080" viewBox="0 0 1920 1080"><defs><linearGradient id="a" x1="863.02" y1="607.88" x2="863.02" y2="608.88" gradientTransform="matrix(11.09, 0, 0, -10.97, -9456.84, 6748.47)" gradientUnits="userSpaceOnUse"><stop offset="0" stop-color="#0054fd"/><stop offset="1" stop-color="#00d3ff"/></linearGradient><linearGradient id="b" x1="863.61" y1="607.56" x2="863.61" y2="608.56" gradientTransform="matrix(11.17, 0, 0, -11.04, -9534.52, 6794.66)" xlink:href="#a"/><linearGradient id="c" x1="876.96" y1="600.19" x2="877.85" y2="599.3" gradientTransform="matrix(13.33, 0, 0, -13.33, -11561.02, 8075.81)" gradientUnits="userSpaceOnUse"><stop offset="0" stop-color="#18884f"/><stop offset="1" stop-color="#0b6731"/></linearGradient><linearGradient id="d" x1="904.05" y1="648.34" x2="904.05" y2="649.28" gradientTransform="matrix(21.33, 0, 0, -6, -19107.68, 3964)" gradientUnits="userSpaceOnUse"><stop offset="0" stop-color="#42a3f2"/><stop offset="1" stop-color="#42a4eb"/></linearGradient><linearGradient id="e" x1="904.05" y1="648.87" x2="904.05" y2="649.87" gradientTransform="matrix(21.33, 0, 0, -5.96, -19107.68, 3961.88)" gradientUnits="userSpaceOnUse"><stop offset="0" stop-color="#11408a"/><stop offset="1" stop-color="#103f8f"/></linearGradient><linearGradient id="f" x1="904.05" y1="652.72" x2="904.05" y2="652.72" gradientTransform="matrix(21.33, 0, 0, -6, -19107.68, 3970)" gradientUnits="userSpaceOnUse"><stop offset="0" stop-color="#3079d6"/><stop offset="1" stop-color="#297cd2"/></linearGradient><linearGradient id="g" x1="903.56" y1="648.34" x2="904.55" y2="648.34" gradientTransform="matrix(21.33, 0, 0, -6.03, -19107.68, 3994.48)" gradientUnits="userSpaceOnUse"><stop offset="0" stop-color="#1d59b3"/><stop offset="1" stop-color="#195bbc"/></linearGradient><linearGradient id="h" x1="876.96" y1="600.19" x2="877.87" y2="599.28" gradientTransform="matrix(13.33, 0, 0, -13.33, -11529.02, 8075.81)" gradientUnits="userSpaceOnUse"><stop offset="0" stop-color="#256ac2"/><stop offset="1" stop-color="#1247ad"/></linearGradient><linearGradient id="i" x1="876.93" y1="600.18" x2="877.85" y2="599.26" gradientTransform="matrix(13.33, 0, 0, -13.33, -11497.02, 8075.81)" gradientUnits="userSpaceOnUse"><stop offset="0" stop-color="#ca4e2a"/><stop offset="1" stop-color="#b63016"/></linearGradient><linearGradient id="j" x1="927.19" y1="565.17" x2="927.96" y2="564.31" gradientTransform="matrix(32, 0, 0, -32, -29667, 18087)" gradientUnits="userSpaceOnUse"><stop offset="0" stop-color="#0070f1"/><stop offset="1" stop-color="#20a6ff"/></linearGradient><linearGradient id="k" x1="914.84" y1="568.42" x2="914.84" y2="567.42" gradientTransform="matrix(19.88, 0, 0, -19.84, -18170.16, 11282.78)" gradientUnits="userSpaceOnUse"><stop offset="0" stop-color="#fcfcfc"/><stop offset="1" stop-color="#d9e6ee"/></linearGradient><linearGradient id="l" x1="883.48" y1="578.16" x2="883.42" y2="579.08" gradientTransform="matrix(10.28, 0, 0, -8.73, -9068.41, 5067.43)" gradientUnits="userSpaceOnUse"><stop offset="0" stop-color="#035bbf"/><stop offset="1" stop-color="#2087ff"/></linearGradient></defs><rect x="256" y="64" width="32" height="32" fill="none"/><path d="M333,54l-6-6,6-6" fill="none" stroke="#212121" stroke-linecap="round" stroke-linejoin="round" stroke-width="2"/><line x1="328.8" y1="48" x2="345" y2="48" fill="none" stroke="#212121" stroke-linecap="round" stroke-linejoin="round" stroke-width="2"/><rect x="320" y="32" width="32" height="32" fill="none"/><rect x="262" y="70" width="20" height="20" fill="none"/><path d="M272.21,76.78a8.19,8.19,0,0,0-5.4,2L264,76v7h7L268.2,80.2A6.26,6.26,0,0,1,278.15,83l1.85-.6A8.22,8.22,0,0,0,272.21,76.78Z" fill="#707070"/><rect x="256" y="64" width="32" height="32" fill="none"/><rect x="294" y="70" width="20" height="20" fill="none"/><path d="M303.79,76.78a8.19,8.19,0,0,1,5.4,2L312,76v7h-7l2.83-2.83A6.26,6.26,0,0,0,297.85,83l-1.85-.6A8.22,8.22,0,0,1,303.79,76.78Z" fill="#707070"/><rect x="288" y="64" width="32" height="32" fill="none"/><path d="M234.8,110h5.4a1.67,1.67,0,0,1,1.8,1.5v6a1.67,1.67,0,0,1-1.8,1.5h-5.4a1.67,1.67,0,0,1-1.8-1.5v-6A1.67,1.67,0,0,1,234.8,110Z" fill="none" stroke="#707070" stroke-linecap="round" stroke-linejoin="round" stroke-width="2"/><path d="M238,107v-.57a1.46,1.46,0,0,1,1.5-1.43h6a1.49,1.49,0,0,1,1.54,1.43h0v7.18a1.44,1.44,0,0,1-1.5,1.39H245" fill="none" stroke="#707070" stroke-linecap="round" stroke-linejoin="round" stroke-width="2"/><rect x="230" y="102" width="20" height="20" fill="none"/><rect x="224" y="96" width="32" height="32" fill="none"/><rect y="64" width="32" height="32" fill="none"/><rect x="4" y="68" width="24" height="24" fill="none"/><path d="M10,76a2,2,0,1,0-2-2A2,2,0,0,0,10,76Zm6,12a2,2,0,1,0-2-2A2,2,0,0,0,16,88Zm-6,0a2,2,0,1,0-2-2A2,2,0,0,0,10,88Zm0-6a2,2,0,1,0-2-2A2,2,0,0,0,10,82Zm6,0a2,2,0,1,0-2-2A2,2,0,0,0,16,82Zm4-8a2,2,0,1,0,2-2A2,2,0,0,0,20,74Zm-4,2a2,2,0,1,0-2-2A2,2,0,0,0,16,76Zm6,6a2,2,0,1,0-2-2A2,2,0,0,0,22,82Zm0,6a2,2,0,1,0-2-2A2,2,0,0,0,22,88Z" fill="#212121"/><rect x="32" y="64" width="32" height="32" fill="none"/><rect x="36" y="68" width="24" height="24" fill="none"/><path d="M42,76a2,2,0,1,0-2-2A2,2,0,0,0,42,76Zm6,12a2,2,0,1,0-2-2A2,2,0,0,0,48,88Zm-6,0a2,2,0,1,0-2-2A2,2,0,0,0,42,88Zm0-6a2,2,0,1,0-2-2A2,2,0,0,0,42,82Zm6,0a2,2,0,1,0-2-2A2,2,0,0,0,48,82Zm4-8a2,2,0,1,0,2-2A2,2,0,0,0,52,74Zm-4,2a2,2,0,1,0-2-2A2,2,0,0,0,48,76Zm6,6a2,2,0,1,0-2-2A2,2,0,0,0,54,82Zm0,6a2,2,0,1,0-2-2A2,2,0,0,0,54,88Z" fill="#fff"/><rect x="132" y="4" width="24" height="24" fill="none"/><circle cx="144" cy="16" r="8" fill="none" stroke="#07f" stroke-width="2"/><path d="M144,15v5" fill="none" stroke="#07f" stroke-linecap="round" stroke-width="2"/><circle cx="144" cy="12" r="1" fill="#07f"/><rect x="128" width="32" height="32" fill="none"/><rect x="32" width="32" height="32" fill="none"/><path d="M57.54,15.25,39.22,6.07a.89.89,0,0,0-1.14.41.77.77,0,0,0,0,.72L42,15l8,1-8,1-3.9,7.8a.81.81,0,0,0,.36,1.11,1,1,0,0,0,.76,0l18.31-9.18a.84.84,0,0,0,.36-1.17A.86.86,0,0,0,57.54,15.25Z" fill="#07f"/><rect x="36" y="4" width="24" height="24" fill="none"/><path d="M242,85l5-5-5-5" fill="none" stroke="#212121" stroke-linecap="round" stroke-linejoin="round" stroke-width="2"/><line x1="246" y1="80" x2="233" y2="80" fill="none" stroke="#212121" stroke-linecap="round" stroke-linejoin="round" stroke-width="2"/><rect x="230" y="70" width="20" height="20" fill="none"/><rect x="224" y="64" width="32" height="32" fill="none"/><rect x="64" width="32" height="32" fill="none"/><path d="M86,18v3c0,.77-.23,1-1,1H75c-.77,0-1-.23-1-1V11c0-.77.4-1,1.16-1H78a1.09,1.09,0,0,0,1-1h0a1.09,1.09,0,0,0-1-1H75.16A3,3,0,0,0,72,10.91V21a2.8,2.8,0,0,0,3,3h9.84A2.87,2.87,0,0,0,88,21h0V18a1.09,1.09,0,0,0-1-1h0A1.09,1.09,0,0,0,86,18Z" fill="#07f"/><rect x="68" y="4" width="24" height="24" fill="none"/><path d="M86.75,7.16l-7,7L79,16.41a.46.46,0,0,0,.28.57.48.48,0,0,0,.29,0l2.3-.77,7-7a.53.53,0,0,0,0-.75L87.5,7.16A.53.53,0,0,0,86.75,7.16Z" fill="#07f"/><path d="M119.58,19.74l-2.24-2.23a1.48,1.48,0,0,0-2.1,0,1.47,1.47,0,0,0-.38.59,1.52,1.52,0,0,1-1.75.95A6.84,6.84,0,0,1,109,14.87a1.43,1.43,0,0,1,1-1.74,1.49,1.49,0,0,0,.93-1.89,1.47,1.47,0,0,0-.37-.59l-2.24-2.23a1.6,1.6,0,0,0-2.16,0l-1.51,1.51c-1.52,1.6.16,5.83,3.92,9.57s8,5.5,9.59,3.91l1.51-1.51A1.6,1.6,0,0,0,119.58,19.74Z" fill="none" stroke="#07f" stroke-width="2"/><rect x="100" y="4" width="24" height="24" fill="none"/><rect x="96" width="32" height="32" fill="none"/><rect x="160" width="32" height="32" fill="none"/><path d="M184.61,9.41a.58.58,0,0,0-.26-.06.55.55,0,0,0-.44.21L180,13.84c0-3.05-.44-3.49-1-4.07A2.59,2.59,0,0,0,177,9h-7.07a2.68,2.68,0,0,0-2,.91A3.07,3.07,0,0,0,167,12.1v7.55A3.54,3.54,0,0,0,168,22a2.68,2.68,0,0,0,2,1h7a2.7,2.7,0,0,0,2-1,2.92,2.92,0,0,0,1-2v-2l3.91,4.29a.57.57,0,0,0,.44.2.75.75,0,0,0,.26,0,.65.65,0,0,0,.39-.64V10A.63.63,0,0,0,184.61,9.41Z" fill="none" stroke="#07f" stroke-linejoin="round" stroke-width="2"/><rect x="164" y="4" width="24" height="24" fill="none"/><circle cx="272" cy="43" r="2" fill="#999"/><circle cx="272" cy="48" r="2" fill="#999"/><circle cx="272" cy="53" r="2" fill="#999"/><rect x="264" y="40" width="16" height="16" fill="none"/><rect x="256" y="32" width="32" height="32" fill="none"/><path d="M211.54,24h-7.08A2.46,2.46,0,0,1,202,21.54V11h12V21.54A2.46,2.46,0,0,1,211.54,24ZM204,13v8.54a.47.47,0,0,0,.46.46h7.08a.47.47,0,0,0,.46-.46V13Z" fill="#db1313"/><path d="M214,8h-4V7h-4V8h-4a1,1,0,0,0,0,2h12a1,1,0,0,0,0-2Z" fill="#db1313"/><rect x="198" y="6" width="20" height="20" fill="none"/><rect x="192" width="32" height="32" fill="none"/><rect x="70" y="38" width="20" height="20" fill="none"/><circle cx="79.5" cy="47.5" r="6.5" fill="none" stroke="#212121" stroke-miterlimit="10" stroke-width="2"/><line x1="85" y1="53" x2="88" y2="56" fill="none" stroke="#212121" stroke-linecap="round" stroke-miterlimit="10" stroke-width="2"/><rect x="70" y="38" width="20" height="20" fill="none"/><rect x="64" y="32" width="32" height="32" fill="none"/><rect x="166" y="38" width="20" height="20" fill="none"/><circle cx="176" cy="44" r="3" fill="none" stroke="#212121" stroke-miterlimit="10" stroke-width="2"/><path d="M174.68,49h2.64A4.68,4.68,0,0,1,182,53.68v0A1.32,1.32,0,0,1,180.68,55h-9.36A1.32,1.32,0,0,1,170,53.68v0A4.68,4.68,0,0,1,174.68,49Z" fill="none" stroke="#212121" stroke-miterlimit="10" stroke-width="2"/><rect x="166" y="38" width="20" height="20" fill="none"/><line x1="183" y1="40" x2="183" y2="44" fill="none" stroke="#212121" stroke-linecap="round" stroke-miterlimit="10" stroke-width="2"/><line x1="185" y1="42" x2="181" y2="42" fill="none" stroke="#212121" stroke-linecap="round" stroke-miterlimit="10" stroke-width="2"/><rect x="160" y="32" width="32" height="32" fill="none"/><rect x="198" y="38" width="20" height="20" fill="none"/><path d="M202.19,50.57l.2-.25c.43-.53,1.66-1.19,1.66-1.87V46a4,4,0,0,1,4-4h0a4,4,0,0,1,4,4v2.58c0,.72,1.26,1.42,1.73,2h0a.88.88,0,0,1-.66,1.46H202.88A.88.88,0,0,1,202.19,50.57Z" fill="none" stroke="#212121" stroke-linecap="round" stroke-linejoin="round" stroke-width="2"/><path d="M205,52a3,3,0,0,0,6,0" fill="none" stroke="#212121" stroke-linecap="round" stroke-linejoin="round" stroke-width="2"/><path d="M209,42a1,1,0,0,0-2,0" fill="none" stroke="#212121" stroke-linecap="round" stroke-linejoin="round" stroke-width="2"/><rect x="192" y="32" width="32" height="32" fill="none"/><path d="M243,22a2.13,2.13,0,0,1-2,2h-6a3.19,3.19,0,0,1-3-3V14a2.06,2.06,0,0,1,2-2v9c0,.34.66,1,1,1Z" fill="#07f"/><rect x="230" y="6" width="20" height="20" fill="none"/><rect x="230" y="6" width="20" height="20" fill="none"/><rect x="237" y="9" width="10" height="10" rx="2" fill="none" stroke="#07f" stroke-miterlimit="10" stroke-width="2"/><rect x="224" width="32" height="32" fill="none"/><path d="M14.31,107.12l.84-.81a4.68,4.68,0,0,1,6.5,0,4.36,4.36,0,0,1,.25,6l-.25.26-.84.81" fill="none" stroke="#212121" stroke-linecap="round" stroke-miterlimit="10" stroke-width="2"/><path d="M11.33,110l-1.05,1.22a4.68,4.68,0,0,0,0,6.44,4.25,4.25,0,0,0,6.13.07l.06-.07,1.67-1.59" fill="none" stroke="#212121" stroke-linecap="round" stroke-miterlimit="10" stroke-width="2"/><line x1="14" y1="114" x2="18.38" y2="109.5" fill="none" stroke="#212121" stroke-linecap="round" stroke-miterlimit="10" stroke-width="2"/><rect x="6" y="102" width="20" height="20" fill="none"/><rect y="96" width="32" height="32" fill="none"/><rect x="32" y="96" width="32" height="32" fill="none"/><path d="M51.41,105.41a1.4,1.4,0,0,0-1-.41H44.12A2.14,2.14,0,0,0,42,107.13v9.74A2.14,2.14,0,0,0,44.12,119h7.76A2.12,2.12,0,0,0,54,116.88v-8.31a1.4,1.4,0,0,0-.41-1Z" fill="none" stroke="#212121" stroke-miterlimit="10" stroke-width="2"/><path d="M49,105v2a2,2,0,0,0,2,2h3" fill="none" stroke="#212121" stroke-miterlimit="10" stroke-width="2"/><rect x="38" y="102" width="20" height="20" fill="none"/><rect x="96" y="96" width="32" height="32" fill="none"/><path d="M183.1,103.63a5.45,5.45,0,0,0-7.72-.06l-.07.06-7.76,7.86a.83.83,0,0,0,0,1.15.79.79,0,0,0,1.13,0h0l7.76-7.85a3.87,3.87,0,0,1,5.46-.05l.05.05a4,4,0,0,1,0,5.57l-9.19,9.31a2.32,2.32,0,0,1-1.63.7,2.21,2.21,0,0,1-1.61-.66,2.38,2.38,0,0,1-.67-1.66,2.35,2.35,0,0,1,.68-1.66l8.38-8.49a.65.65,0,0,1,.92,0h0a.68.68,0,0,1,0,.95l-6.95,7a.82.82,0,0,0,0,1.16.8.8,0,0,0,1.13,0h0l7-7a2.32,2.32,0,0,0,0-3.26,2.25,2.25,0,0,0-3.18,0l0,0-8.38,8.49a4,4,0,0,0,0,5.63,3.8,3.8,0,0,0,2.72,1.14h0a3.89,3.89,0,0,0,2.75-1.18l9.19-9.3a5.63,5.63,0,0,0,0-7.89Z" fill="#666"/><rect x="166" y="102" width="20" height="20" fill="none"/><rect x="160" y="96" width="32" height="32" fill="none"/><rect x="100" y="68" width="24" height="24" fill="none"/><path d="M118.9,73.1a3.75,3.75,0,0,0-5.3,0L110,76.7a3.27,3.27,0,0,0-.58.75A3.77,3.77,0,0,0,110,82a3.7,3.7,0,0,0,1.68,1l2.14-.73-.68-1.08a1.89,1.89,0,0,1-2.3-1.33,1.86,1.86,0,0,1,.49-1.81l3.6-3.6a1.87,1.87,0,0,1,2.65,2.65L115,79.7l-1.21,2.06.82.81a3.4,3.4,0,0,0,.74-.57l3.6-3.6a3.75,3.75,0,0,0,0-5.3Z" fill="url(#a)"/><path d="M114,83.32,110.4,86.9a3.75,3.75,0,0,1-5.49-5.11c.06-.07.13-.13.19-.19L108.68,78a3.23,3.23,0,0,1,.75-.57,3.66,3.66,0,0,0-.39,2.87l-2.61,2.61a1.87,1.87,0,0,0,2.65,2.65L112.65,82a1.88,1.88,0,0,0-1.81-3.14,2,2,0,0,1,.49-.84l1-1A3.6,3.6,0,0,1,114,78a3.76,3.76,0,0,1,0,5.31Z" fill="url(#b)"/><rect x="96" y="64" width="32" height="32" fill="none"/><rect x="128" y="64" width="32" height="32" fill="none"/><rect x="146" y="74" width="11" height="6" fill="#21a366"/><path d="M157,80H136V90.67A1.33,1.33,0,0,0,137.31,92h18.38A1.33,1.33,0,0,0,157,90.67h0Z" fill="#185c37"/><rect x="146" y="80" width="11" height="6" fill="#107c42"/><rect x="136" y="74" width="10" height="6" fill="#3fa071"/><path d="M155.62,68H146v6h11V69.33A1.36,1.36,0,0,0,155.63,68Z" fill="#33c481"/><path d="M137.25,68H146v6H136V69.33A1.29,1.29,0,0,1,137.25,68Z" fill="#21a366"/><path d="M142.88,72.67H136v16h6.88a2.46,2.46,0,0,0,2.45-2.46h0V75.12a2.45,2.45,0,0,0-2.45-2.45Z" opacity="0.05" style="isolation:isolate"/><path d="M142.81,88H136V72.89h6.81A2.08,2.08,0,0,1,144.89,75h0v11A2.08,2.08,0,0,1,142.81,88Z" opacity="0.07" style="isolation:isolate"/><path d="M142.74,87.33H136V73.11h6.74a1.71,1.71,0,0,1,1.7,1.71h0V85.63a1.7,1.7,0,0,1-1.7,1.7Z" opacity="0.09" style="isolation:isolate"/><path d="M142.7,86H132.3a1.3,1.3,0,0,1-1.3-1.3h0V74.3a1.3,1.3,0,0,1,1.3-1.3h10.4a1.3,1.3,0,0,1,1.3,1.3h0V84.7a1.3,1.3,0,0,1-1.3,1.3Z" fill="url(#c)"/><path d="M134.22,76h1.86l1.52,2.63L139.2,76h1.74l-2.4,3.5L141,83h-1.84l-1.65-2.75L135.87,83H134l2.5-3.51Z" fill="#fff"/><rect x="128" y="64" width="32" height="32" fill="none"/><rect x="160" y="64" width="32" height="32" fill="none"/><path d="M187.69,68H169.31A1.33,1.33,0,0,0,168,69.33h0V74h21V69.33A1.33,1.33,0,0,0,187.69,68Z" fill="url(#d)"/><path d="M168,86v4.63A1.33,1.33,0,0,0,169.31,92h18.38A1.33,1.33,0,0,0,189,90.67h0V86Z" fill="url(#e)"/><path d="M168,74h21v6H168Z" fill="url(#f)"/><path d="M168,80h21v6H168Z" fill="url(#g)"/><path d="M174.88,72.67H168v16h6.88a2.46,2.46,0,0,0,2.45-2.46h0V75.12a2.45,2.45,0,0,0-2.45-2.45Z" opacity="0.05" style="isolation:isolate"/><path d="M174.81,88H168V72.89h6.81A2.08,2.08,0,0,1,176.89,75h0v11A2.08,2.08,0,0,1,174.81,88Z" opacity="0.07" style="isolation:isolate"/><path d="M174.74,87.33H168V73.11h6.74a1.71,1.71,0,0,1,1.7,1.71h0V85.63a1.7,1.7,0,0,1-1.7,1.7Z" opacity="0.09" style="isolation:isolate"/><path d="M174.7,86H164.3a1.3,1.3,0,0,1-1.3-1.3h0V74.3a1.3,1.3,0,0,1,1.3-1.3h10.4a1.3,1.3,0,0,1,1.3,1.3h0V84.7a1.3,1.3,0,0,1-1.3,1.3Z" fill="url(#h)"/><path d="M171.92,77l-.85,4.36L170.13,77h-1.21l-1,4.49L167.07,77H166l1.28,6h1.3l.94-4.61.95,4.61h1.24L173,77Z" fill="#fff"/><rect x="160" y="64" width="32" height="32" fill="none"/><rect x="192" y="64" width="32" height="32" fill="none"/><path d="M197,80a12,12,0,0,0,24,0Z" fill="#d35230"/><path d="M209,68V80h12A12,12,0,0,0,209,68Z" fill="#ff8f6b"/><path d="M209,68a12,12,0,0,0-12,12h12Z" fill="#ed6c47"/><path d="M209.33,75.12a2.45,2.45,0,0,0-2.45-2.45h-7a12,12,0,0,0,1.2,16h5.83a2.45,2.45,0,0,0,2.45-2.46Z" opacity="0.05" style="isolation:isolate"/><path d="M206.81,72.89h-7.13A12,12,0,0,0,200.41,88h6.4a2.08,2.08,0,0,0,2.08-2.08h0V75A2.08,2.08,0,0,0,206.81,72.89Z" opacity="0.07" style="isolation:isolate"/><path d="M206.73,73.11h-7.22a11.94,11.94,0,0,0,.34,14.22h6.88a1.7,1.7,0,0,0,1.71-1.7h0V74.82a1.71,1.71,0,0,0-1.7-1.71Z" opacity="0.09" style="isolation:isolate"/><path d="M206.7,87H196.3a1.35,1.35,0,0,1-1.3-1.4h0V74.4a1.35,1.35,0,0,1,1.3-1.4h10.4a1.35,1.35,0,0,1,1.3,1.4h0V85.6a1.35,1.35,0,0,1-1.3,1.4Z" fill="url(#i)"/><path d="M202,76.5h-3V83h1.31V80.71h1.48A2.21,2.21,0,0,0,204,78.5v0A2,2,0,0,0,202,76.5Zm.58,2.18a1,1,0,0,1-1,1h-1.3V77.53h1.3a1,1,0,0,1,1,1Z" fill="#fff"/><rect x="192" y="64" width="32" height="32" fill="none"/><path d="M278.64,19.27l-2-1.95a1.32,1.32,0,0,0-1.85,0,1.46,1.46,0,0,0-.32.52,1.34,1.34,0,0,1-1.54.84A6.05,6.05,0,0,1,269.33,15a1.28,1.28,0,0,1,.84-1.54,1.3,1.3,0,0,0,.82-1.65,1.32,1.32,0,0,0-.33-.51l-2-2a1.42,1.42,0,0,0-1.89,0l-1.33,1.33c-1.33,1.4.14,5.1,3.42,8.37s7,4.82,8.4,3.42l1.32-1.32A1.41,1.41,0,0,0,278.64,19.27Z" fill="#db1313"/><rect x="264" y="8" width="16" height="16" fill="none"/><line x1="278.27" y1="14.27" x2="274.73" y2="10.73" fill="none" stroke="#db1313" stroke-linecap="round" stroke-miterlimit="10"/><line x1="278.27" y1="10.73" x2="274.73" y2="14.27" fill="none" stroke="#db1313" stroke-linecap="round" stroke-miterlimit="10"/><rect x="256" width="32" height="32" fill="none"/><path d="M298.12,19h2.32a1.15,1.15,0,0,0,1.11-1.2,1,1,0,0,0-.12-.48,1.24,1.24,0,0,1,.42-1.5,4.79,4.79,0,0,1,4.3,0,1.18,1.18,0,0,1,.42,1.5,1.15,1.15,0,0,0,.52,1.56,1.26,1.26,0,0,0,.47.12h2.32A1.21,1.21,0,0,0,311,17.81V16.13c0-1.72-3.11-3.13-7-3.13s-7,1.37-7,3.13v1.68A1.21,1.21,0,0,0,298.12,19Z" fill="#07f"/><rect x="296" y="8" width="16" height="16" fill="none"/><rect x="288" width="32" height="32" fill="none"/><path d="M74.4,82.53a.79.79,0,0,1,.23-.56l8-8a.8.8,0,0,1,1.14,0L86,76.23a.8.8,0,0,1,0,1.14l-8,8a.79.79,0,0,1-.56.23l-2.22.26a1,1,0,0,1-1.11-1.11Z" fill="none" stroke="#212121" stroke-miterlimit="10" stroke-width="2"/><line x1="81" y1="76" x2="84" y2="79" fill="none" stroke="#212121" stroke-miterlimit="10" stroke-width="2"/><rect x="72" y="72" width="16" height="16" fill="none"/><rect x="32" y="32" width="32" height="32" fill="none"/><circle cx="47.5" cy="47.5" r="7.5" fill="none" stroke="#999" stroke-miterlimit="10" stroke-width="2"/><line x1="53" y1="53" x2="57" y2="57" fill="none" stroke="#999" stroke-linecap="round" stroke-miterlimit="10" stroke-width="2"/><rect x="36" y="36" width="24" height="24" fill="none"/><rect y="128" width="32" height="32" fill="none"/><circle cx="16" cy="144" r="5" fill="#07f"/><path d="M14.34,144l1.58,1.47,2.59-3" fill="none" stroke="#fff" stroke-linecap="round" stroke-linejoin="round"/><rect x="32" y="128" width="32" height="32" fill="none"/><path d="M44,144a5,5,0,1,1,5,5A5,5,0,0,1,44,144Z" fill="none"/><path d="M49,148a4,4,0,1,0-4-4,4,4,0,0,0,4,4m0,1a5,5,0,1,1,5-5A5,5,0,0,1,49,149Z" fill="#07f"/><path d="M47.34,144l1.58,1.47,2.59-3" fill="none" stroke="#07f" stroke-linecap="round" stroke-linejoin="round"/><rect x="64" y="128" width="32" height="32" fill="none"/><path d="M75,145a5,5,0,1,1,5,5A5,5,0,0,1,75,145Z" fill="none"/><path d="M80,149a4,4,0,1,0-4-4,4,4,0,0,0,4,4m0,1a5,5,0,1,1,5-5A5,5,0,0,1,80,150Z" fill="#07f"/><path d="M96,128h32v32H96Z" fill="none"/><circle cx="112" cy="144" r="7" fill="none" stroke="#999" stroke-miterlimit="10" stroke-width="2"/><path d="M109,142a1,1,0,0,1,2,0" fill="none" stroke="#999" stroke-linecap="round" stroke-miterlimit="10" stroke-width="1.5"/><path d="M113,142a1,1,0,0,1,2,0" fill="none" stroke="#999" stroke-linecap="round" stroke-miterlimit="10" stroke-width="1.5"/><path d="M109,145s0,2,3,2,3-2,3-2" fill="none" stroke="#999" stroke-linecap="round" stroke-miterlimit="10" stroke-width="1.5"/><rect x="104" y="136" width="16" height="16" fill="none"/><rect x="128" y="128" width="32" height="32" fill="none"/><circle cx="139" cy="144" r="2" fill="#999"/><circle cx="144" cy="144" r="2" fill="#999"/><circle cx="149" cy="144" r="2" fill="#999"/><rect x="136" y="136" width="16" height="16" fill="none"/><rect x="160" y="128" width="32" height="32" fill="none"/><path d="M176,141.5h-2v-3a.5.5,0,0,0-.5-.5.51.51,0,0,0-.37.16l-5,5.5a.52.52,0,0,0,0,.68l5,5.5a.5.5,0,0,0,.87-.34v-3h1.05a11.38,11.38,0,0,1,8.1,3.35.5.5,0,0,0,.71,0,.52.52,0,0,0,.14-.35A8,8,0,0,0,176,141.5Z" fill="#212121"/><rect x="168" y="136" width="16" height="16" fill="none"/><path d="M214.57,143l-4.38-3.94a1.31,1.31,0,1,0-1.75,1.95l1.83,1.65h-8a1.31,1.31,0,0,0,0,2.62h8L208.43,147a1.31,1.31,0,0,0,1.76,1.95l4.38-3.93a1.32,1.32,0,0,0,.09-1.86l-.09-.09Z" fill="#212121"/><rect x="200" y="136" width="16" height="16" fill="none"/><rect x="192" y="128" width="32" height="32" fill="none"/><rect x="224" y="128" width="32" height="32" fill="none"/><path d="M235,149.33a1.67,1.67,0,0,0,1.67,1.67h6.66a1.67,1.67,0,0,0,1.67-1.67V141H235Z" fill="#de2b2b"/><path d="M242,138v-1h-4v1h-4v2h12v-2Z" fill="#de2b2b"/><rect x="232" y="136" width="16" height="16" fill="none"/><rect x="256" y="128" width="32" height="32" fill="none"/><path d="M271.91,137h-.06a7.23,7.23,0,0,0-5,2l-1.46-1.45a.25.25,0,0,0-.27-.05.23.23,0,0,0-.15.22v4.72a.24.24,0,0,0,.24.24H270a.25.25,0,0,0,.25-.24h0a.24.24,0,0,0-.12-.21l-1.45-1.43a4.52,4.52,0,1,1,3.14,7.69V151h0a7,7,0,1,0,.05-14Z" fill="#212121"/><rect x="264" y="136" width="16" height="16" fill="none"/><circle cx="304" cy="144" r="4" fill="#13bc27"/><rect x="288" y="128" width="32" height="32" fill="none"/><rect x="320" y="128" width="32" height="32" fill="none"/><path d="M334,149a1.89,1.89,0,0,1-2-1.77V141h-1c-.76,0-1,.21-1,1v7.53a1.41,1.41,0,0,0,1.38,1.44h6.25a1.41,1.41,0,0,0,1.37-1.44V149Z"/><path d="M342,138.68a1.62,1.62,0,0,0-1.55-1.68h-5.9a1.62,1.62,0,0,0-1.55,1.68v7.64a1.62,1.62,0,0,0,1.55,1.68h5.9a1.62,1.62,0,0,0,1.55-1.68Z"/><rect x="328" y="136" width="16" height="16" fill="none"/><rect y="160" width="64" height="64" fill="none"/><path d="M32,162A30,30,0,1,1,2,192,30,30,0,0,1,32,162Z" fill="#fff"/><path d="M35,185.61,22.73,197.85a3,3,0,0,1-.73-2v-7.7a3,3,0,0,1,.94-2.23,3.16,3.16,0,0,1,2.27-.92h7.86A3.1,3.1,0,0,1,35,185.61Z"/><rect x="20" y="180" width="24" height="24" fill="none"/><path d="M42,186.05V198a.65.65,0,0,1-.44.65.86.86,0,0,1-.27.05.66.66,0,0,1-.51-.21L36,194v2a2.48,2.48,0,0,1-.66,2.08,3.16,3.16,0,0,1-2.27.92H27.42l-3.71,3.71-1.42-1.42,19.5-19.5,1.42,1.42L41,185.4a.75.75,0,0,1,.54,0A.67.67,0,0,1,42,186.05Z"/><rect x="20" y="180" width="24" height="24" fill="none"/><rect y="224" width="64" height="64" fill="none"/><path d="M32,226A30,30,0,1,1,2,256,30,30,0,0,1,32,226Z" fill="#db1313"/><path d="M23.6,259h3.31a1.56,1.56,0,0,0,1.59-1.53,1.75,1.75,0,0,0-.16-.71,1.56,1.56,0,0,1,.59-2,7.23,7.23,0,0,1,6.15,0,1.51,1.51,0,0,1,.59,2,1.55,1.55,0,0,0,.7,2.08,1.64,1.64,0,0,0,.72.16H40.4a1.67,1.67,0,0,0,1.6-1.59v-2.24c-.06-2.29-4.44-4.17-10-4.17s-10,1.83-10,4.18v2.23A1.67,1.67,0,0,0,23.6,259Z" fill="#fff"/><rect x="22" y="246" width="20" height="20" fill="none"/><rect x="64" y="160" width="64" height="64" fill="none"/><path d="M96,162a30,30,0,1,1-30,30A30,30,0,0,1,96,162Z" fill="#fff"/><rect x="84" y="180" width="24" height="24" fill="none"/><path d="M99.87,184.71l-6.78,6.78a3.84,3.84,0,0,1-.07-.76v-5A3.64,3.64,0,0,1,96.51,182,3.37,3.37,0,0,1,99,183.08,3.84,3.84,0,0,1,99.87,184.71Z"/><path d="M91.65,192.93l-1,.95a4.89,4.89,0,0,1-.7-2.53v-1.87a1.2,1.2,0,0,1,1.15-1.24.75.75,0,0,1,.15,0v3.11A3.75,3.75,0,0,0,91.65,192.93Z"/><path d="M103,189.48v1.87c0,2.75-2.34,5-5.2,5.49v2.62c3.9,0,3.25,2.49,3.25,2.49H92s-.65-2.49,3.25-2.49v-2.62a6.46,6.46,0,0,1-1.73-.49L87.82,202l-1.32-1.32L105.18,182l1.32,1.32-6.5,6.5v.91a3.71,3.71,0,0,1-3.49,3.74,3.08,3.08,0,0,1-1-.16l-1.07,1.07a5,5,0,0,0,1.8.34h.52c2.6,0,4.94-2,4.94-4.37v-3.11a1.2,1.2,0,0,1,1.3,1.09Z"/><rect x="64" y="224" width="64" height="64" fill="none"/><circle cx="96" cy="256" r="30" fill="#13bc27"/><path d="M104.51,260.21,102,257.7a1.66,1.66,0,0,0-2.36,0,1.59,1.59,0,0,0-.42.66,1.72,1.72,0,0,1-2,1.07,7.73,7.73,0,0,1-4.66-4.66,1.63,1.63,0,0,1,1.07-2,1.65,1.65,0,0,0,1-2.11,1.69,1.69,0,0,0-.42-.67l-2.51-2.51a1.79,1.79,0,0,0-2.42,0l-1.71,1.7c-1.71,1.8.18,6.55,4.4,10.77s9,6.19,10.77,4.4l1.71-1.7A1.79,1.79,0,0,0,104.51,260.21Z" fill="#fff"/><rect x="86" y="246" width="20" height="20" fill="none"/><rect x="128" y="224" width="64" height="64" fill="none"/><circle cx="160" cy="256" r="30" fill="#13bc27"/><path d="M171.48,247.52a.8.8,0,0,0-.34-.07.76.76,0,0,0-.6.26l-5.4,5.66v-2.32a4,4,0,0,0-1.13-2.86,3.66,3.66,0,0,0-2.72-1.19h-9.43a3.67,3.67,0,0,0-2.73,1.19,4,4,0,0,0-1.13,2.86V261a4,4,0,0,0,1.13,2.86,3.67,3.67,0,0,0,2.73,1.19h9.43a3.66,3.66,0,0,0,2.72-1.19,4,4,0,0,0,1.13-2.86v-2.33l5.4,5.66a.74.74,0,0,0,.6.27.8.8,0,0,0,.34-.07.83.83,0,0,0,.52-.83v-15.3A.83.83,0,0,0,171.48,247.52Z" fill="#fff"/><rect x="148" y="243" width="24" height="24" fill="none"/><rect x="128" y="160" width="64" height="64" fill="none"/><path d="M160,162a30,30,0,1,1-30,30A30,30,0,0,1,160,162Z" fill="#fff"/><path d="M169.57,185.41a.71.71,0,0,0-.28-.06.67.67,0,0,0-.5.21l-4.5,4.4v-1.81a3,3,0,0,0-.95-2.23,3.16,3.16,0,0,0-2.27-.92h-7.86a3.16,3.16,0,0,0-2.27.92,3,3,0,0,0-.94,2.23v7.7a3,3,0,0,0,.94,2.23,3.16,3.16,0,0,0,2.27.92h7.86a3.16,3.16,0,0,0,2.27-.92,3,3,0,0,0,.95-2.23V194l4.5,4.41a.67.67,0,0,0,.5.21.92.92,0,0,0,.28-.05A.66.66,0,0,0,170,198v-11.9A.64.64,0,0,0,169.57,185.41Z"/><rect x="148" y="180" width="24" height="24" fill="none"/><rect x="64" y="160" width="64" height="64" fill="none"/><path d="M96,162a30,30,0,1,1-30,30A30,30,0,0,1,96,162Z" fill="#fff"/><rect x="84" y="180" width="24" height="24" fill="none"/><path d="M99.87,184.71l-6.78,6.78a3.84,3.84,0,0,1-.07-.76v-5A3.64,3.64,0,0,1,96.51,182,3.37,3.37,0,0,1,99,183.08,3.84,3.84,0,0,1,99.87,184.71Z"/><path d="M91.65,192.93l-1,.95a4.89,4.89,0,0,1-.7-2.53v-1.87a1.2,1.2,0,0,1,1.15-1.24.75.75,0,0,1,.15,0v3.11A3.75,3.75,0,0,0,91.65,192.93Z"/><path d="M103,189.48v1.87c0,2.75-2.34,5-5.2,5.49v2.62c3.9,0,3.25,2.49,3.25,2.49H92s-.65-2.49,3.25-2.49v-2.62a6.46,6.46,0,0,1-1.73-.49L87.82,202l-1.32-1.32L105.18,182l1.32,1.32-6.5,6.5v.91a3.71,3.71,0,0,1-3.49,3.74,3.08,3.08,0,0,1-1-.16l-1.07,1.07a5,5,0,0,0,1.8.34h.52c2.6,0,4.94-2,4.94-4.37v-3.11a1.2,1.2,0,0,1,1.3,1.09Z"/><rect x="64" y="160" width="64" height="64" fill="none"/><path d="M96,162a30,30,0,1,1-30,30A30,30,0,0,1,96,162Z" fill="#fff"/><rect x="84" y="180" width="24" height="24" fill="none"/><path d="M99.87,184.71l-6.78,6.78a3.84,3.84,0,0,1-.07-.76v-5A3.64,3.64,0,0,1,96.51,182,3.37,3.37,0,0,1,99,183.08,3.84,3.84,0,0,1,99.87,184.71Z"/><path d="M91.65,192.93l-1,.95a4.89,4.89,0,0,1-.7-2.53v-1.87a1.2,1.2,0,0,1,1.15-1.24.75.75,0,0,1,.15,0v3.11A3.75,3.75,0,0,0,91.65,192.93Z"/><path d="M103,189.48v1.87c0,2.75-2.34,5-5.2,5.49v2.62c3.9,0,3.25,2.49,3.25,2.49H92s-.65-2.49,3.25-2.49v-2.62a6.46,6.46,0,0,1-1.73-.49L87.82,202l-1.32-1.32L105.18,182l1.32,1.32-6.5,6.5v.91a3.71,3.71,0,0,1-3.49,3.74,3.08,3.08,0,0,1-1-.16l-1.07,1.07a5,5,0,0,0,1.8.34h.52c2.6,0,4.94-2,4.94-4.37v-3.11a1.2,1.2,0,0,1,1.3,1.09Z"/><path d="M96,162a30,30,0,1,1-30,30A30,30,0,0,1,96,162Z" fill="#fff"/><path d="M224,162a30,30,0,1,1-30,30A30,30,0,0,1,224,162Z" fill="#fff"/><circle cx="16" cy="16" r="16" fill="url(#j)"/><path d="M6,16a10,10,0,1,1,19.13,3.89l.79,2.93a1,1,0,0,1-.7,1.23,1.09,1.09,0,0,1-.25,0l-3.26.05A10,10,0,0,1,6,16Z" fill="url(#k)"/><path d="M16.29,20A1.18,1.18,0,0,1,15,19a1.18,1.18,0,0,1,1.29-1h3.42A1.18,1.18,0,0,1,21,19a1.18,1.18,0,0,1-1.29,1H16.29Zm-4.16-3A1.09,1.09,0,0,1,11,16a1.09,1.09,0,0,1,1.13-1h7.74A1.09,1.09,0,0,1,21,16a1.09,1.09,0,0,1-1.13,1Zm2-3A1.11,1.11,0,0,1,13,13a1.12,1.12,0,0,1,1.18-1h5.64A1.11,1.11,0,0,1,21,13a1.12,1.12,0,0,1-1.18,1Z" fill="url(#l)"/><rect x="320" width="32" height="32" fill="none"/><rect x="328" y="8" width="16" height="16" fill="none"/><path d="M342.63,19.27l-2-1.95a1.31,1.31,0,0,0-1.84,0,1.36,1.36,0,0,0-.33.52,1.34,1.34,0,0,1-1.54.84A6,6,0,0,1,333.33,15a1.27,1.27,0,0,1,.83-1.54,1.3,1.3,0,0,0,.82-1.65,1.32,1.32,0,0,0-.33-.51l-1.95-2a1.42,1.42,0,0,0-1.89,0l-1.33,1.33c-1.33,1.4.14,5.1,3.42,8.37s7,4.82,8.4,3.42l1.33-1.32A1.42,1.42,0,0,0,342.63,19.27Z" fill="#db1313"/><polyline points="342.01 11 339.01 14 337 12" fill="none" stroke="#db1313" stroke-linecap="round" stroke-linejoin="round"/><polyline points="339.01 10.5 342.51 10.5 342.51 14" fill="none" stroke="#db1313" stroke-linecap="round" stroke-linejoin="round"/><circle cx="15.5" cy="47.5" r="7.5" fill="none" stroke="#999" stroke-miterlimit="10" stroke-width="2"/><line x1="21" y1="53" x2="25" y2="57" fill="none" stroke="#999" stroke-linecap="round" stroke-miterlimit="10" stroke-width="2"/><rect x="4" y="36" width="24" height="24" fill="none"/><rect y="32" width="32" height="32" fill="none"/><rect x="96" y="32" width="32" height="32" fill="none"/><rect x="102" y="38" width="20" height="20" fill="none"/><path d="M116,54a1.87,1.87,0,0,1-1.6,1h-7.5A1.94,1.94,0,0,1,105,53V43a1.94,1.94,0,0,1,1.88-2h7.5A1.86,1.86,0,0,1,116,42" fill="none" stroke="#000" stroke-linecap="round" stroke-miterlimit="10" stroke-width="2"/><line x1="112" y1="48" x2="117" y2="48" fill="none" stroke="#000" stroke-linecap="round" stroke-miterlimit="10" stroke-width="2"/><polyline points="117 46 119 48 117 50" fill="none" stroke="#000" stroke-linecap="round" stroke-linejoin="round" stroke-width="2"/><rect x="128" y="32" width="32" height="32" fill="none"/><rect x="134" y="38" width="20" height="20" fill="none"/><circle cx="141" cy="44" r="3" fill="none" stroke="#212121" stroke-miterlimit="10" stroke-width="2"/><circle cx="148" cy="46" r="2" fill="none" stroke="#212121" stroke-miterlimit="10" stroke-width="2"/><path d="M140.68,49h.64A4.68,4.68,0,0,1,146,53.68v0A1.32,1.32,0,0,1,144.68,55h-7.36A1.32,1.32,0,0,1,136,53.68v0A4.68,4.68,0,0,1,140.68,49Z" fill="none" stroke="#212121" stroke-miterlimit="10" stroke-width="2"/><path d="M144.79,55h6.42a.79.79,0,0,0,.79-.79V54a4,4,0,0,0-4-4,4,4,0,0,0-2.67,1" fill="none" stroke="#212121" stroke-miterlimit="10" stroke-width="2"/><rect x="224" y="32" width="32" height="32" fill="none"/><rect x="230" y="38" width="20" height="20" fill="none"/><rect x="233" y="41" width="14" height="14" rx="3" stroke-width="2" stroke="#212121" stroke-linecap="round" stroke-linejoin="round" fill="none"/><path d="M235,54l5.92-4.44a3,3,0,0,1,3.92.28L247,52" fill="none" stroke="#212121" stroke-linejoin="round" stroke-width="2"/><circle cx="237.5" cy="45.5" r="1.5" fill="none" stroke="#212121" stroke-linecap="round" stroke-linejoin="round" stroke-width="2"/><rect x="94.17" y="56.08" width="16" height="16" fill="none"/><rect x="64" y="64" width="32" height="32" fill="none"/><rect x="288" y="32" width="32" height="32" fill="none"/><polyline points="300 46.5 304 49.5 308 46.5" fill="none" stroke="#707070" stroke-linecap="round" stroke-linejoin="round" stroke-width="2"/><rect x="296" y="40" width="16" height="16" fill="none"/><rect x="64" y="96" width="32" height="32" fill="none"/><circle cx="80" cy="112" r="9" fill="none" stroke="#666" stroke-miterlimit="10" stroke-width="2"/><path d="M83.24,113a.75.75,0,0,0-.6.32,3.71,3.71,0,0,1-5.28,0,.74.74,0,0,0-1.06-.16.81.81,0,0,0-.15,1.1l.09.1a5.14,5.14,0,0,0,7.5,0l0,0a.81.81,0,0,0,0-1.11.72.72,0,0,0-.54-.25Z" fill="#666"/><path d="M76,110.14a.47.47,0,0,1,.53-.4.46.46,0,0,1,.47.4,1,1,0,0,0,2,0,2.53,2.53,0,0,0-5,0,1,1,0,0,0,2,0Z" fill="#666"/><path d="M83.5,108a2.34,2.34,0,0,0-2.5,2.14,1,1,0,0,0,2,0h0a.47.47,0,0,1,.53-.4.46.46,0,0,1,.47.4,1,1,0,0,0,2,0h0A2.34,2.34,0,0,0,83.5,108Z" fill="#666"/><rect x="70" y="102" width="20" height="20" fill="none"/><path d="M116.17,121H107a4,4,0,0,1-4-4V107a4,4,0,0,1,4-4h10a4,4,0,0,1,4,4v9.17a2,2,0,0,1-.59,1.42l-2.82,2.82A2,2,0,0,1,116.17,121Z" fill="none" stroke="#666" stroke-miterlimit="10" stroke-width="2"/><path d="M115.24,113a.74.74,0,0,0-.6.31,3.73,3.73,0,0,1-5.28,0,.74.74,0,0,0-1.06-.16.8.8,0,0,0-.15,1.09l.09.11a5.18,5.18,0,0,0,7.5,0l0,0a.81.81,0,0,0,0-1.11.75.75,0,0,0-.54-.24Z" fill="#666"/><path d="M108,110.14a.47.47,0,0,1,.53-.4.46.46,0,0,1,.47.4,1,1,0,0,0,2,0,2.53,2.53,0,0,0-5,0,1,1,0,0,0,2,0Z" fill="#666"/><path d="M115.5,108a2.34,2.34,0,0,0-2.5,2.14,1,1,0,0,0,2,0h0a.47.47,0,0,1,.53-.4.46.46,0,0,1,.47.4,1,1,0,0,0,2,0h0A2.34,2.34,0,0,0,115.5,108Z" fill="#666"/><path d="M116,121v-2a3,3,0,0,1,3-3h2" fill="none" stroke="#666" stroke-miterlimit="10" stroke-width="2"/><rect x="102" y="102" width="20" height="20" fill="none"/><rect x="128" y="96" width="32" height="32" fill="none"/><rect x="135" y="103" width="18" height="18" rx="4" fill="none" stroke="#666" stroke-miterlimit="10" stroke-width="2"/><path d="M140.37,112.52a.62.62,0,0,1,.9,0l1.46,1.54,2.73-2.87a.63.63,0,0,1,.9,0l4.46,4.68a.69.69,0,0,1,0,.94.61.61,0,0,1-.44.19H137.64a.65.65,0,0,1-.64-.66.71.71,0,0,1,.19-.48Z" fill="#666"/><circle cx="140.97" cy="107.97" r="1.97" fill="#666"/><rect x="134" y="102" width="20" height="20" fill="none"/><rect x="192" y="96" width="32" height="32" fill="none"/><rect x="199" y="103" width="18" height="18" rx="4" fill="none" stroke="#666" stroke-miterlimit="10" stroke-width="2"/><path d="M206.66,114.93a2.59,2.59,0,0,1-1.1.78A4.27,4.27,0,0,1,204,116a2.64,2.64,0,0,1-2.13-.94,4.12,4.12,0,0,1-.85-2.6v-.67a5.35,5.35,0,0,1,.35-2,3,3,0,0,1,1-1.32,2.58,2.58,0,0,1,1.52-.46,2.69,2.69,0,0,1,2,.67,3,3,0,0,1,.82,2h-1.57a1.68,1.68,0,0,0-.36-.93,1.1,1.1,0,0,0-.79-.28,1,1,0,0,0-.95.6,3.72,3.72,0,0,0-.34,1.71v.47A3.5,3.5,0,0,0,203,114a1.17,1.17,0,0,0,1.09.59,1.22,1.22,0,0,0,.94-.33V113H203.9v-1.28h2.76Z" fill="#666"/><path d="M209.35,115.89h-1.63v-7.78h1.63Z" fill="#666"/><path d="M214.74,112.79h-2.63v3.1h-1.63v-7.78H215v1.45h-2.89v1.79h2.63Z" fill="#666"/><rect x="198" y="102" width="20" height="20" fill="none"/><rect x="212" y="180" width="24" height="24" fill="none"/><rect x="220" y="182" width="8" height="12" rx="4"/><path d="M229,190v.78a5.16,5.16,0,0,1-4.51,5.2,5,5,0,0,1-5.49-5v-1a1,1,0,0,0-1-1h0a1,1,0,0,0-1,1v.71a7.19,7.19,0,0,0,6.79,7.29,7,7,0,0,0,7.21-7v-1a1,1,0,0,0-1-1h0A1,1,0,0,0,229,190Z"/><rect x="223" y="196" width="2" height="6"/><path d="M220,202a1.9,1.9,0,0,1,1.78-2h4.44a1.9,1.9,0,0,1,1.78,2Z"/><rect x="84" y="180" width="24" height="24" fill="none"/><path d="M97.61,183,91,189.58V186a4,4,0,0,1,6.61-3Z"/><path d="M99,186v4a4,4,0,0,1-7.5,1.92l7.26-7.26A3.75,3.75,0,0,1,99,186Z"/><path d="M89,189a1,1,0,0,0-1,1v.71a7.13,7.13,0,0,0,.2,1.67l1.8-1.8V190A1,1,0,0,0,89,189Zm12,0a1,1,0,0,0-1,1v.78a5.16,5.16,0,0,1-4.51,5.2,3.85,3.85,0,0,1-.48,0,5,5,0,0,1-4.59-3L89,194.42a6.9,6.9,0,0,0,5,3.5,5.16,5.16,0,0,0,.79.08,6.06,6.06,0,0,0,1.21-.08,7,7,0,0,0,6-6.92v-1A1,1,0,0,0,101,189Z"/><rect x="94" y="196" width="2" height="6"/><path d="M91,202a1.9,1.9,0,0,1,1.78-2h4.44A1.9,1.9,0,0,1,99,202Z"/><rect x="82.48" y="189.5" width="24.04" height="2" transform="translate(-107.03 122.62) rotate(-45)"/></svg>